<mxfile host="app.diagrams.net" modified="2024-05-27T13:02:23.568Z" agent="Mozilla/5.0 (Windows NT 10.0; Win64; x64) AppleWebKit/537.36 (KHTML, like Gecko) Chrome/124.0.0.0 Safari/537.36" version="24.4.9" etag="_ydtpf1-ZA5lO0L1GdC9" type="github">
  <diagram name="PÃ¡gina-1" id="-NTpS42hBzeWNT5sdXz2">
    <mxGraphModel>
      <root>
        <mxCell id="0" />
        <mxCell id="1" parent="0" />
      </root>
    </mxGraphModel>
  </diagram>
</mxfile>
